<svg width="18" height="18" viewBox="0 0 18 18" fill="none" xmlns="http://www.w3.org/2000/svg">
<g id="ic:baseline-water-drop">
<path id="Vector" d="M9.00021 1.50012C5.00271 4.91262 3.00021 7.86012 3.00021 10.3501C3.00021 14.0851 5.85021 16.5001 9.00021 16.5001C12.1502 16.5001 15.0002 14.0851 15.0002 10.3501C15.0002 7.86012 12.9977 4.91262 9.00021 1.50012ZM5.87271 10.5001C6.15021 10.5001 6.37521 10.6951 6.42771 10.9651C6.73521 12.6301 8.13771 13.2001 9.15771 13.1176C9.48021 13.1026 9.75021 13.3576 9.75021 13.6801C9.75021 13.9801 9.51021 14.2276 9.21021 14.2426C7.61271 14.3401 5.74521 13.4251 5.31771 11.1526C5.30468 11.0722 5.30926 10.9899 5.33115 10.9115C5.35304 10.833 5.39172 10.7602 5.44449 10.6982C5.49727 10.6361 5.5629 10.5863 5.63683 10.5521C5.71077 10.5179 5.79125 10.5002 5.87271 10.5001Z" fill="#2F72F0"/>
</g>
</svg>
