<svg width="8" height="11" viewBox="0 0 8 11" fill="none" xmlns="http://www.w3.org/2000/svg">
<path id="Vector" d="M4 11C6.20933 11 8 9.625 8 7.21875C8 6.1875 7.66667 4.46875 6.33333 3.09375C6.5 4.125 5.5 4.46875 5.5 4.46875C6 2.75 4.66667 0.34375 2.66667 0C2.90467 1.375 3 2.75 1.33333 4.125C0.5 4.8125 0 6.00119 0 7.21875C0 9.625 1.79067 11 4 11ZM4 10.3125C2.89533 10.3125 2 9.625 2 8.42188C2 7.90625 2.16667 7.04688 2.83333 6.35938C2.75 6.875 3.33333 7.21875 3.33333 7.21875C3.08333 6.35938 3.66667 4.98438 4.66667 4.8125C4.54733 5.5 4.5 6.1875 5.33333 6.875C5.75 7.21875 6 7.81275 6 8.42188C6 9.625 5.10467 10.3125 4 10.3125Z" fill="#E75151"/>
</svg>
