<svg width="13" height="13" viewBox="0 0 13 13" fill="none" xmlns="http://www.w3.org/2000/svg">
<g id="asicon/outline/gallery">
<path id="Vector" d="M9.1 2C9.33869 2 9.56761 2.10536 9.7364 2.29289C9.90518 2.48043 10 2.73478 10 3V10C10 10.2652 9.90518 10.5196 9.7364 10.7071C9.56761 10.8946 9.33869 11 9.1 11H1.9C1.66131 11 1.43239 10.8946 1.2636 10.7071C1.09482 10.5196 1 10.2652 1 10V3C1 2.73478 1.09482 2.48043 1.2636 2.29289C1.43239 2.10536 1.66131 2 1.9 2H9.1ZM9.1 3H1.9V8.05L4.14775 5.553C4.19998 5.49495 4.262 5.44889 4.33026 5.41747C4.39851 5.38606 4.47167 5.36988 4.54555 5.36988C4.61943 5.36988 4.69259 5.38606 4.76084 5.41747C4.8291 5.44889 4.89111 5.49495 4.94335 5.553L6.7726 7.586L7.3297 6.967C7.38193 6.90895 7.44395 6.86289 7.51221 6.83147C7.58046 6.80006 7.65362 6.78388 7.7275 6.78388C7.80138 6.78388 7.87454 6.80006 7.94279 6.83147C8.01105 6.86289 8.07306 6.90895 8.1253 6.967L9.1 8.0505V3ZM7.075 4C7.25402 4 7.42571 4.07902 7.5523 4.21967C7.67888 4.36032 7.75 4.55109 7.75 4.75C7.75 4.94891 7.67888 5.13968 7.5523 5.28033C7.42571 5.42098 7.25402 5.5 7.075 5.5C6.89598 5.5 6.72429 5.42098 6.5977 5.28033C6.47112 5.13968 6.4 4.94891 6.4 4.75C6.4 4.55109 6.47112 4.36032 6.5977 4.21967C6.72429 4.07902 6.89598 4 7.075 4Z" fill="#DD7700"/>
</g>
</svg>
